<svg xmlns="http://www.w3.org/2000/svg" viewBox="0 0 2048 800" width="2048" height="800">
  <g fill="#000000" fill-rule="evenodd">
    <path d="M 468 447 L 467 448 L 466 448 L 465 449 L 464 449 L 461 452 L 461 453 L 460 454 L 460 631 L 461 632 L 461 638 L 462 639 L 462 643 L 463 644 L 463 646 L 464 647 L 464 650 L 465 651 L 465 652 L 466 653 L 466 655 L 467 656 L 467 657 L 468 658 L 468 659 L 469 660 L 469 661 L 470 662 L 470 663 L 471 664 L 471 665 L 473 667 L 473 668 L 475 670 L 475 671 L 478 674 L 478 675 L 488 685 L 489 685 L 490 686 L 490 687 L 491 687 L 494 690 L 495 690 L 497 692 L 498 692 L 500 694 L 501 694 L 503 696 L 504 696 L 505 697 L 506 697 L 508 699 L 509 699 L 510 700 L 511 700 L 512 701 L 513 701 L 514 702 L 515 702 L 516 703 L 517 703 L 518 704 L 519 704 L 520 705 L 521 705 L 522 706 L 523 706 L 524 707 L 526 707 L 527 708 L 528 708 L 529 709 L 531 709 L 532 710 L 534 710 L 535 711 L 536 711 L 537 712 L 539 712 L 540 713 L 542 713 L 543 714 L 545 714 L 546 715 L 549 715 L 550 716 L 552 716 L 553 717 L 557 717 L 558 718 L 560 718 L 561 719 L 565 719 L 566 720 L 571 720 L 572 721 L 576 721 L 577 722 L 584 722 L 585 723 L 590 723 L 591 724 L 601 724 L 602 725 L 615 725 L 616 726 L 658 726 L 659 725 L 672 725 L 673 724 L 684 724 L 685 723 L 690 723 L 691 722 L 697 722 L 698 721 L 702 721 L 703 720 L 708 720 L 709 719 L 713 719 L 714 718 L 717 718 L 718 717 L 721 717 L 722 716 L 724 716 L 725 715 L 728 715 L 729 714 L 732 714 L 733 713 L 734 713 L 735 712 L 738 712 L 739 711 L 740 711 L 741 710 L 743 710 L 744 709 L 746 709 L 747 708 L 748 708 L 749 707 L 751 707 L 752 706 L 753 706 L 754 705 L 755 705 L 756 704 L 757 704 L 758 703 L 759 703 L 760 702 L 761 702 L 762 701 L 763 701 L 764 700 L 765 700 L 767 698 L 768 698 L 769 697 L 770 697 L 772 695 L 773 695 L 774 694 L 775 694 L 778 691 L 779 691 L 782 688 L 783 688 L 796 675 L 796 674 L 800 670 L 800 669 L 802 667 L 802 666 L 803 665 L 803 664 L 805 662 L 805 661 L 806 660 L 806 659 L 807 658 L 807 657 L 808 656 L 808 654 L 809 653 L 809 652 L 810 651 L 810 648 L 811 647 L 811 645 L 812 644 L 812 641 L 813 640 L 813 635 L 814 634 L 814 625 L 815 624 L 815 458 L 814 457 L 814 454 L 813 453 L 813 452 L 810 449 L 809 449 L 808 448 L 807 448 L 806 447 L 796 447 L 795 448 L 794 448 L 793 449 L 792 449 L 790 451 L 790 452 L 789 453 L 789 455 L 788 456 L 788 625 L 787 626 L 787 632 L 786 633 L 786 636 L 785 637 L 785 639 L 784 640 L 784 642 L 783 643 L 783 644 L 782 645 L 782 647 L 780 649 L 780 650 L 779 651 L 779 652 L 777 654 L 777 655 L 773 659 L 773 660 L 765 668 L 764 668 L 761 671 L 760 671 L 757 674 L 756 674 L 755 675 L 754 675 L 752 677 L 751 677 L 750 678 L 749 678 L 748 679 L 747 679 L 746 680 L 745 680 L 744 681 L 743 681 L 742 682 L 740 682 L 739 683 L 738 683 L 737 684 L 736 684 L 735 685 L 734 685 L 733 686 L 731 686 L 730 687 L 728 687 L 727 688 L 725 688 L 724 689 L 721 689 L 720 690 L 718 690 L 717 691 L 713 691 L 712 692 L 709 692 L 708 693 L 705 693 L 704 694 L 699 694 L 698 695 L 694 695 L 693 696 L 686 696 L 685 697 L 679 697 L 678 698 L 666 698 L 665 699 L 609 699 L 608 698 L 597 698 L 596 697 L 590 697 L 589 696 L 581 696 L 580 695 L 576 695 L 575 694 L 570 694 L 569 693 L 566 693 L 565 692 L 562 692 L 561 691 L 558 691 L 557 690 L 555 690 L 554 689 L 551 689 L 550 688 L 548 688 L 547 687 L 545 687 L 544 686 L 542 686 L 541 685 L 540 685 L 539 684 L 537 684 L 536 683 L 535 683 L 534 682 L 532 682 L 531 681 L 530 681 L 529 680 L 528 680 L 527 679 L 526 679 L 525 678 L 524 678 L 522 676 L 521 676 L 520 675 L 519 675 L 517 673 L 516 673 L 514 671 L 513 671 L 508 666 L 507 666 L 502 661 L 502 660 L 497 655 L 497 654 L 496 653 L 496 652 L 494 650 L 494 649 L 493 648 L 493 647 L 492 646 L 492 645 L 491 644 L 491 643 L 490 642 L 490 639 L 489 638 L 489 636 L 488 635 L 488 632 L 487 631 L 487 622 L 486 621 L 486 455 L 485 454 L 485 452 L 482 449 L 481 449 L 480 448 L 479 448 L 478 447 Z"/>
    <path d="M 82 447 L 81 448 L 80 448 L 79 449 L 78 449 L 75 452 L 75 453 L 74 454 L 74 718 L 75 718 L 76 719 L 420 719 L 421 718 L 422 718 L 424 716 L 425 716 L 427 714 L 427 713 L 428 712 L 428 700 L 427 699 L 427 698 L 424 695 L 423 695 L 422 694 L 420 694 L 419 693 L 101 693 L 100 692 L 100 455 L 99 454 L 99 452 L 96 449 L 95 449 L 94 448 L 93 448 L 92 447 Z"/>
    <path d="M 849 444 L 848 445 L 847 445 L 847 708 L 848 709 L 848 711 L 852 715 L 853 715 L 854 716 L 856 716 L 857 717 L 864 717 L 865 716 L 866 716 L 867 715 L 868 715 L 869 714 L 870 714 L 872 712 L 872 711 L 873 710 L 873 706 L 874 705 L 874 636 L 875 635 L 1062 635 L 1064 637 L 1065 637 L 1067 639 L 1068 639 L 1069 640 L 1070 640 L 1072 642 L 1073 642 L 1075 644 L 1076 644 L 1078 646 L 1079 646 L 1082 649 L 1083 649 L 1085 651 L 1086 651 L 1087 652 L 1088 652 L 1090 654 L 1091 654 L 1093 656 L 1094 656 L 1096 658 L 1097 658 L 1099 660 L 1100 660 L 1102 662 L 1103 662 L 1105 664 L 1106 664 L 1108 666 L 1109 666 L 1111 668 L 1112 668 L 1114 670 L 1115 670 L 1117 672 L 1118 672 L 1120 674 L 1121 674 L 1123 676 L 1124 676 L 1126 678 L 1127 678 L 1129 680 L 1130 680 L 1132 682 L 1133 682 L 1135 684 L 1136 684 L 1138 686 L 1139 686 L 1141 688 L 1142 688 L 1144 690 L 1145 690 L 1147 692 L 1148 692 L 1150 694 L 1151 694 L 1153 696 L 1154 696 L 1156 698 L 1157 698 L 1159 700 L 1160 700 L 1162 702 L 1163 702 L 1165 704 L 1166 704 L 1168 706 L 1169 706 L 1171 708 L 1172 708 L 1174 710 L 1175 710 L 1177 712 L 1178 712 L 1180 714 L 1181 714 L 1182 715 L 1183 715 L 1184 716 L 1185 716 L 1186 717 L 1192 717 L 1193 716 L 1194 716 L 1195 715 L 1196 715 L 1200 711 L 1200 710 L 1201 709 L 1201 708 L 1202 707 L 1202 700 L 1201 699 L 1201 697 L 1197 693 L 1196 693 L 1194 691 L 1193 691 L 1191 689 L 1190 689 L 1188 687 L 1187 687 L 1185 685 L 1184 685 L 1182 683 L 1181 683 L 1179 681 L 1178 681 L 1176 679 L 1175 679 L 1173 677 L 1172 677 L 1170 675 L 1169 675 L 1167 673 L 1166 673 L 1164 671 L 1163 671 L 1161 669 L 1160 669 L 1158 667 L 1157 667 L 1155 665 L 1154 665 L 1152 663 L 1151 663 L 1149 661 L 1148 661 L 1146 659 L 1145 659 L 1143 657 L 1142 657 L 1140 655 L 1139 655 L 1138 654 L 1137 654 L 1134 651 L 1133 651 L 1131 649 L 1130 649 L 1128 647 L 1127 647 L 1125 645 L 1124 645 L 1123 644 L 1122 644 L 1119 641 L 1118 641 L 1116 639 L 1115 639 L 1113 637 L 1112 637 L 1111 636 L 1112 635 L 1116 635 L 1117 634 L 1123 634 L 1124 633 L 1129 633 L 1130 632 L 1132 632 L 1133 631 L 1136 631 L 1137 630 L 1138 630 L 1139 629 L 1141 629 L 1142 628 L 1144 628 L 1145 627 L 1146 627 L 1147 626 L 1148 626 L 1149 625 L 1150 625 L 1151 624 L 1152 624 L 1153 623 L 1154 623 L 1156 621 L 1157 621 L 1158 620 L 1159 620 L 1161 618 L 1162 618 L 1166 614 L 1167 614 L 1181 600 L 1181 599 L 1185 595 L 1185 594 L 1187 592 L 1187 591 L 1189 589 L 1189 588 L 1190 587 L 1190 586 L 1191 585 L 1191 584 L 1193 582 L 1193 580 L 1194 579 L 1194 578 L 1195 577 L 1195 576 L 1196 575 L 1196 573 L 1197 572 L 1197 570 L 1198 569 L 1198 567 L 1199 566 L 1199 564 L 1200 563 L 1200 558 L 1201 557 L 1201 551 L 1202 550 L 1202 530 L 1201 529 L 1201 522 L 1200 521 L 1200 517 L 1199 516 L 1199 513 L 1198 512 L 1198 510 L 1197 509 L 1197 507 L 1196 506 L 1196 504 L 1195 503 L 1195 501 L 1194 500 L 1194 499 L 1193 498 L 1193 497 L 1191 495 L 1191 493 L 1189 491 L 1189 490 L 1188 489 L 1188 488 L 1185 485 L 1185 484 L 1183 482 L 1183 481 L 1167 465 L 1166 465 L 1163 462 L 1162 462 L 1160 460 L 1159 460 L 1157 458 L 1156 458 L 1155 457 L 1154 457 L 1152 455 L 1151 455 L 1150 454 L 1148 454 L 1147 453 L 1146 453 L 1145 452 L 1144 452 L 1143 451 L 1142 451 L 1141 450 L 1139 450 L 1138 449 L 1136 449 L 1135 448 L 1133 448 L 1132 447 L 1128 447 L 1127 446 L 1123 446 L 1122 445 L 1112 445 L 1111 444 Z M 874 472 L 875 471 L 1117 471 L 1118 472 L 1122 472 L 1123 473 L 1127 473 L 1128 474 L 1129 474 L 1130 475 L 1132 475 L 1133 476 L 1134 476 L 1135 477 L 1137 477 L 1139 479 L 1140 479 L 1142 481 L 1143 481 L 1145 483 L 1146 483 L 1149 486 L 1150 486 L 1158 494 L 1158 495 L 1163 500 L 1163 501 L 1165 503 L 1165 504 L 1167 506 L 1167 508 L 1169 510 L 1169 511 L 1170 512 L 1170 514 L 1171 515 L 1171 516 L 1172 517 L 1172 520 L 1173 521 L 1173 523 L 1174 524 L 1174 529 L 1175 530 L 1175 550 L 1174 551 L 1174 555 L 1173 556 L 1173 558 L 1172 559 L 1172 562 L 1171 563 L 1171 564 L 1170 565 L 1170 567 L 1169 568 L 1169 569 L 1168 570 L 1168 571 L 1167 572 L 1167 573 L 1165 575 L 1165 576 L 1163 578 L 1163 579 L 1160 582 L 1160 583 L 1149 594 L 1148 594 L 1145 597 L 1144 597 L 1142 599 L 1141 599 L 1139 601 L 1138 601 L 1137 602 L 1136 602 L 1135 603 L 1133 603 L 1132 604 L 1131 604 L 1130 605 L 1127 605 L 1126 606 L 1124 606 L 1123 607 L 1118 607 L 1117 608 L 875 608 L 874 607 Z"/>
    <path d="M 1391 440 L 1390 441 L 1383 441 L 1382 442 L 1374 442 L 1373 443 L 1368 443 L 1367 444 L 1363 444 L 1362 445 L 1358 445 L 1357 446 L 1355 446 L 1354 447 L 1350 447 L 1349 448 L 1347 448 L 1346 449 L 1344 449 L 1343 450 L 1340 450 L 1339 451 L 1338 451 L 1337 452 L 1334 452 L 1333 453 L 1332 453 L 1331 454 L 1329 454 L 1328 455 L 1327 455 L 1326 456 L 1325 456 L 1324 457 L 1322 457 L 1321 458 L 1320 458 L 1319 459 L 1318 459 L 1317 460 L 1316 460 L 1315 461 L 1314 461 L 1313 462 L 1312 462 L 1311 463 L 1310 463 L 1309 464 L 1308 464 L 1307 465 L 1306 465 L 1304 467 L 1303 467 L 1302 468 L 1301 468 L 1300 469 L 1299 469 L 1297 471 L 1296 471 L 1295 472 L 1294 472 L 1292 474 L 1291 474 L 1288 477 L 1287 477 L 1285 479 L 1284 479 L 1281 482 L 1280 482 L 1276 486 L 1275 486 L 1269 492 L 1268 492 L 1259 501 L 1259 502 L 1253 508 L 1253 509 L 1251 511 L 1251 512 L 1247 516 L 1247 517 L 1246 518 L 1246 519 L 1244 521 L 1244 522 L 1242 524 L 1242 525 L 1241 526 L 1241 527 L 1240 528 L 1240 529 L 1239 530 L 1239 531 L 1238 532 L 1238 533 L 1237 534 L 1237 535 L 1236 536 L 1236 538 L 1235 539 L 1235 540 L 1234 541 L 1234 543 L 1233 544 L 1233 546 L 1232 547 L 1232 550 L 1231 551 L 1231 553 L 1230 554 L 1230 557 L 1229 558 L 1229 563 L 1228 564 L 1228 571 L 1227 572 L 1227 594 L 1228 595 L 1228 601 L 1229 602 L 1229 608 L 1230 609 L 1230 612 L 1231 613 L 1231 616 L 1232 617 L 1232 619 L 1233 620 L 1233 622 L 1234 623 L 1234 625 L 1235 626 L 1235 627 L 1236 628 L 1236 630 L 1237 631 L 1237 632 L 1238 633 L 1238 634 L 1239 635 L 1239 636 L 1240 637 L 1240 638 L 1241 639 L 1241 640 L 1242 641 L 1242 642 L 1244 644 L 1244 645 L 1245 646 L 1245 647 L 1247 649 L 1247 650 L 1249 652 L 1249 653 L 1253 657 L 1253 658 L 1257 662 L 1257 663 L 1270 676 L 1271 676 L 1276 681 L 1277 681 L 1281 685 L 1282 685 L 1284 687 L 1285 687 L 1288 690 L 1289 690 L 1291 692 L 1292 692 L 1294 694 L 1295 694 L 1297 696 L 1298 696 L 1299 697 L 1300 697 L 1301 698 L 1302 698 L 1303 699 L 1304 699 L 1306 701 L 1307 701 L 1308 702 L 1309 702 L 1310 703 L 1311 703 L 1312 704 L 1313 704 L 1314 705 L 1315 705 L 1316 706 L 1317 706 L 1318 707 L 1319 707 L 1320 708 L 1322 708 L 1323 709 L 1324 709 L 1325 710 L 1326 710 L 1327 711 L 1328 711 L 1329 712 L 1331 712 L 1332 713 L 1334 713 L 1335 714 L 1337 714 L 1338 715 L 1340 715 L 1341 716 L 1343 716 L 1344 717 L 1347 717 L 1348 718 L 1350 718 L 1351 719 L 1354 719 L 1355 720 L 1358 720 L 1359 721 L 1363 721 L 1364 722 L 1369 722 L 1370 723 L 1373 723 L 1374 724 L 1382 724 L 1383 725 L 1392 725 L 1393 726 L 1430 726 L 1431 725 L 1440 725 L 1441 724 L 1448 724 L 1449 723 L 1453 723 L 1454 722 L 1459 722 L 1460 721 L 1464 721 L 1465 720 L 1468 720 L 1469 719 L 1472 719 L 1473 718 L 1475 718 L 1476 717 L 1479 717 L 1480 716 L 1482 716 L 1483 715 L 1485 715 L 1486 714 L 1488 714 L 1489 713 L 1490 713 L 1491 712 L 1493 712 L 1494 711 L 1495 711 L 1496 710 L 1498 710 L 1499 709 L 1500 709 L 1501 708 L 1502 708 L 1503 707 L 1505 707 L 1506 706 L 1507 706 L 1508 705 L 1509 705 L 1510 704 L 1511 704 L 1512 703 L 1513 703 L 1514 702 L 1515 702 L 1517 700 L 1518 700 L 1519 699 L 1520 699 L 1521 698 L 1522 698 L 1523 697 L 1524 697 L 1526 695 L 1527 695 L 1529 693 L 1530 693 L 1532 691 L 1533 691 L 1535 689 L 1536 689 L 1538 687 L 1539 687 L 1543 683 L 1544 683 L 1549 678 L 1550 678 L 1567 661 L 1567 660 L 1571 656 L 1571 655 L 1574 652 L 1574 651 L 1576 649 L 1576 648 L 1578 646 L 1578 645 L 1579 644 L 1579 643 L 1581 641 L 1581 640 L 1582 639 L 1582 638 L 1583 637 L 1583 636 L 1584 635 L 1584 634 L 1585 633 L 1585 632 L 1586 631 L 1586 629 L 1587 628 L 1587 627 L 1588 626 L 1588 624 L 1589 623 L 1589 622 L 1590 621 L 1590 618 L 1591 617 L 1591 615 L 1592 614 L 1592 611 L 1593 610 L 1593 606 L 1594 605 L 1594 601 L 1595 600 L 1595 567 L 1594 566 L 1594 562 L 1593 561 L 1593 556 L 1592 555 L 1592 552 L 1591 551 L 1591 549 L 1590 548 L 1590 545 L 1589 544 L 1589 543 L 1588 542 L 1588 540 L 1587 539 L 1587 538 L 1586 537 L 1586 535 L 1585 534 L 1585 533 L 1584 532 L 1584 531 L 1583 530 L 1583 529 L 1582 528 L 1582 527 L 1581 526 L 1581 525 L 1579 523 L 1579 522 L 1578 521 L 1578 520 L 1576 518 L 1576 517 L 1573 514 L 1573 513 L 1571 511 L 1571 510 L 1566 505 L 1566 504 L 1551 489 L 1550 489 L 1545 484 L 1544 484 L 1540 480 L 1539 480 L 1537 478 L 1536 478 L 1533 475 L 1532 475 L 1531 474 L 1530 474 L 1528 472 L 1527 472 L 1525 470 L 1524 470 L 1523 469 L 1522 469 L 1520 467 L 1519 467 L 1518 466 L 1517 466 L 1516 465 L 1515 465 L 1514 464 L 1513 464 L 1512 463 L 1511 463 L 1510 462 L 1509 462 L 1508 461 L 1507 461 L 1506 460 L 1505 460 L 1504 459 L 1503 459 L 1502 458 L 1501 458 L 1500 457 L 1499 457 L 1498 456 L 1497 456 L 1496 455 L 1494 455 L 1493 454 L 1491 454 L 1490 453 L 1489 453 L 1488 452 L 1486 452 L 1485 451 L 1483 451 L 1482 450 L 1480 450 L 1479 449 L 1476 449 L 1475 448 L 1473 448 L 1472 447 L 1469 447 L 1468 446 L 1466 446 L 1465 445 L 1460 445 L 1459 444 L 1456 444 L 1455 443 L 1450 443 L 1449 442 L 1441 442 L 1440 441 L 1433 441 L 1432 440 Z M 1397 467 L 1398 466 L 1425 466 L 1426 467 L 1435 467 L 1436 468 L 1444 468 L 1445 469 L 1450 469 L 1451 470 L 1455 470 L 1456 471 L 1460 471 L 1461 472 L 1463 472 L 1464 473 L 1468 473 L 1469 474 L 1471 474 L 1472 475 L 1474 475 L 1475 476 L 1477 476 L 1478 477 L 1480 477 L 1481 478 L 1483 478 L 1484 479 L 1485 479 L 1486 480 L 1488 480 L 1489 481 L 1490 481 L 1491 482 L 1492 482 L 1493 483 L 1495 483 L 1496 484 L 1497 484 L 1498 485 L 1499 485 L 1500 486 L 1501 486 L 1503 488 L 1504 488 L 1505 489 L 1506 489 L 1508 491 L 1509 491 L 1510 492 L 1511 492 L 1513 494 L 1514 494 L 1516 496 L 1517 496 L 1519 498 L 1520 498 L 1523 501 L 1524 501 L 1527 504 L 1528 504 L 1534 510 L 1535 510 L 1536 511 L 1536 512 L 1537 512 L 1543 518 L 1543 519 L 1548 524 L 1548 525 L 1551 528 L 1551 529 L 1553 531 L 1553 532 L 1555 534 L 1555 535 L 1557 537 L 1557 538 L 1558 539 L 1558 540 L 1559 541 L 1559 542 L 1560 543 L 1560 544 L 1561 545 L 1561 546 L 1562 547 L 1562 548 L 1563 549 L 1563 551 L 1564 552 L 1564 554 L 1565 555 L 1565 557 L 1566 558 L 1566 560 L 1567 561 L 1567 565 L 1568 566 L 1568 571 L 1569 572 L 1569 595 L 1568 596 L 1568 600 L 1567 601 L 1567 605 L 1566 606 L 1566 608 L 1565 609 L 1565 611 L 1564 612 L 1564 614 L 1563 615 L 1563 617 L 1562 618 L 1562 619 L 1561 620 L 1561 621 L 1560 622 L 1560 623 L 1559 624 L 1559 625 L 1558 626 L 1558 627 L 1557 628 L 1557 629 L 1555 631 L 1555 632 L 1553 634 L 1553 635 L 1551 637 L 1551 638 L 1548 641 L 1548 642 L 1530 660 L 1529 660 L 1525 664 L 1524 664 L 1521 667 L 1520 667 L 1517 670 L 1516 670 L 1515 671 L 1514 671 L 1512 673 L 1511 673 L 1509 675 L 1508 675 L 1507 676 L 1506 676 L 1504 678 L 1503 678 L 1502 679 L 1501 679 L 1500 680 L 1499 680 L 1498 681 L 1497 681 L 1496 682 L 1495 682 L 1494 683 L 1493 683 L 1492 684 L 1490 684 L 1489 685 L 1488 685 L 1487 686 L 1485 686 L 1484 687 L 1483 687 L 1482 688 L 1480 688 L 1479 689 L 1477 689 L 1476 690 L 1474 690 L 1473 691 L 1470 691 L 1469 692 L 1467 692 L 1466 693 L 1463 693 L 1462 694 L 1459 694 L 1458 695 L 1455 695 L 1454 696 L 1448 696 L 1447 697 L 1443 697 L 1442 698 L 1432 698 L 1431 699 L 1392 699 L 1391 698 L 1381 698 L 1380 697 L 1376 697 L 1375 696 L 1369 696 L 1368 695 L 1365 695 L 1364 694 L 1361 694 L 1360 693 L 1357 693 L 1356 692 L 1354 692 L 1353 691 L 1350 691 L 1349 690 L 1347 690 L 1346 689 L 1344 689 L 1343 688 L 1341 688 L 1340 687 L 1339 687 L 1338 686 L 1336 686 L 1335 685 L 1334 685 L 1333 684 L 1331 684 L 1330 683 L 1329 683 L 1328 682 L 1327 682 L 1326 681 L 1325 681 L 1324 680 L 1323 680 L 1322 679 L 1321 679 L 1320 678 L 1319 678 L 1317 676 L 1316 676 L 1315 675 L 1314 675 L 1312 673 L 1311 673 L 1309 671 L 1308 671 L 1307 670 L 1306 670 L 1303 667 L 1302 667 L 1299 664 L 1298 664 L 1295 661 L 1294 661 L 1284 651 L 1283 651 L 1282 650 L 1282 649 L 1275 642 L 1275 641 L 1272 638 L 1272 637 L 1269 634 L 1269 633 L 1267 631 L 1267 630 L 1266 629 L 1266 628 L 1265 627 L 1265 626 L 1263 624 L 1263 622 L 1262 621 L 1262 620 L 1261 619 L 1261 618 L 1260 617 L 1260 615 L 1259 614 L 1259 613 L 1258 612 L 1258 609 L 1257 608 L 1257 606 L 1256 605 L 1256 602 L 1255 601 L 1255 595 L 1254 594 L 1254 572 L 1255 571 L 1255 565 L 1256 564 L 1256 561 L 1257 560 L 1257 558 L 1258 557 L 1258 554 L 1259 553 L 1259 552 L 1260 551 L 1260 549 L 1261 548 L 1261 547 L 1262 546 L 1262 545 L 1263 544 L 1263 542 L 1265 540 L 1265 538 L 1267 536 L 1267 535 L 1269 533 L 1269 532 L 1272 529 L 1272 528 L 1274 526 L 1274 525 L 1279 520 L 1279 519 L 1288 510 L 1289 510 L 1289 509 L 1290 508 L 1291 508 L 1295 504 L 1296 504 L 1299 501 L 1300 501 L 1303 498 L 1304 498 L 1307 495 L 1308 495 L 1310 493 L 1311 493 L 1313 491 L 1314 491 L 1315 490 L 1316 490 L 1317 489 L 1318 489 L 1320 487 L 1321 487 L 1322 486 L 1323 486 L 1324 485 L 1325 485 L 1326 484 L 1327 484 L 1328 483 L 1330 483 L 1331 482 L 1332 482 L 1333 481 L 1334 481 L 1335 480 L 1337 480 L 1338 479 L 1339 479 L 1340 478 L 1342 478 L 1343 477 L 1345 477 L 1346 476 L 1348 476 L 1349 475 L 1351 475 L 1352 474 L 1354 474 L 1355 473 L 1359 473 L 1360 472 L 1362 472 L 1363 471 L 1367 471 L 1368 470 L 1372 470 L 1373 469 L 1378 469 L 1379 468 L 1387 468 L 1388 467 Z"/>
    <path d="M 1762 438 L 1761 439 L 1751 439 L 1750 440 L 1738 440 L 1737 441 L 1731 441 L 1730 442 L 1724 442 L 1723 443 L 1718 443 L 1717 444 L 1713 444 L 1712 445 L 1707 445 L 1706 446 L 1703 446 L 1702 447 L 1698 447 L 1697 448 L 1694 448 L 1693 449 L 1690 449 L 1689 450 L 1686 450 L 1685 451 L 1684 451 L 1683 452 L 1680 452 L 1679 453 L 1677 453 L 1676 454 L 1674 454 L 1673 455 L 1672 455 L 1671 456 L 1669 456 L 1668 457 L 1666 457 L 1665 458 L 1664 458 L 1663 459 L 1662 459 L 1661 460 L 1660 460 L 1659 461 L 1658 461 L 1657 462 L 1656 462 L 1655 463 L 1654 463 L 1653 464 L 1652 464 L 1651 465 L 1650 465 L 1649 466 L 1648 466 L 1646 468 L 1645 468 L 1643 470 L 1642 470 L 1640 472 L 1639 472 L 1627 484 L 1627 485 L 1625 487 L 1625 488 L 1624 489 L 1624 490 L 1623 491 L 1623 492 L 1622 493 L 1622 495 L 1621 496 L 1621 497 L 1620 498 L 1620 501 L 1619 502 L 1619 523 L 1620 524 L 1620 527 L 1621 528 L 1621 530 L 1622 531 L 1622 533 L 1623 534 L 1623 535 L 1624 536 L 1624 537 L 1625 538 L 1625 539 L 1627 541 L 1627 542 L 1629 544 L 1629 545 L 1638 554 L 1639 554 L 1641 556 L 1642 556 L 1645 559 L 1646 559 L 1647 560 L 1648 560 L 1650 562 L 1651 562 L 1652 563 L 1653 563 L 1654 564 L 1655 564 L 1656 565 L 1657 565 L 1658 566 L 1660 566 L 1661 567 L 1662 567 L 1663 568 L 1664 568 L 1665 569 L 1667 569 L 1668 570 L 1669 570 L 1670 571 L 1673 571 L 1674 572 L 1676 572 L 1677 573 L 1680 573 L 1681 574 L 1684 574 L 1685 575 L 1687 575 L 1688 576 L 1692 576 L 1693 577 L 1696 577 L 1697 578 L 1702 578 L 1703 579 L 1707 579 L 1708 580 L 1712 580 L 1713 581 L 1717 581 L 1718 582 L 1722 582 L 1723 583 L 1728 583 L 1729 584 L 1733 584 L 1734 585 L 1739 585 L 1740 586 L 1746 586 L 1747 587 L 1751 587 L 1752 588 L 1759 588 L 1760 589 L 1764 589 L 1765 590 L 1771 590 L 1772 591 L 1777 591 L 1778 592 L 1784 592 L 1785 593 L 1792 593 L 1793 594 L 1798 594 L 1799 595 L 1806 595 L 1807 596 L 1812 596 L 1813 597 L 1821 597 L 1822 598 L 1828 598 L 1829 599 L 1834 599 L 1835 600 L 1842 600 L 1843 601 L 1847 601 L 1848 602 L 1854 602 L 1855 603 L 1859 603 L 1860 604 L 1866 604 L 1867 605 L 1872 605 L 1873 606 L 1876 606 L 1877 607 L 1882 607 L 1883 608 L 1886 608 L 1887 609 L 1891 609 L 1892 610 L 1896 610 L 1897 611 L 1900 611 L 1901 612 L 1905 612 L 1906 613 L 1908 613 L 1909 614 L 1911 614 L 1912 615 L 1914 615 L 1915 616 L 1917 616 L 1918 617 L 1920 617 L 1921 618 L 1922 618 L 1923 619 L 1924 619 L 1925 620 L 1926 620 L 1927 621 L 1928 621 L 1930 623 L 1931 623 L 1933 625 L 1934 625 L 1941 632 L 1941 633 L 1943 635 L 1943 636 L 1944 637 L 1944 638 L 1945 639 L 1945 641 L 1946 642 L 1946 645 L 1947 646 L 1947 652 L 1946 653 L 1946 655 L 1945 656 L 1945 658 L 1943 660 L 1943 661 L 1940 664 L 1940 665 L 1939 666 L 1938 666 L 1938 667 L 1937 668 L 1936 668 L 1933 671 L 1932 671 L 1930 673 L 1929 673 L 1927 675 L 1926 675 L 1925 676 L 1924 676 L 1923 677 L 1922 677 L 1921 678 L 1920 678 L 1919 679 L 1917 679 L 1916 680 L 1915 680 L 1914 681 L 1912 681 L 1911 682 L 1909 682 L 1908 683 L 1906 683 L 1905 684 L 1903 684 L 1902 685 L 1900 685 L 1899 686 L 1896 686 L 1895 687 L 1892 687 L 1891 688 L 1888 688 L 1887 689 L 1883 689 L 1882 690 L 1879 690 L 1878 691 L 1873 691 L 1872 692 L 1867 692 L 1866 693 L 1860 693 L 1859 694 L 1851 694 L 1850 695 L 1843 695 L 1842 696 L 1826 696 L 1825 697 L 1799 697 L 1798 698 L 1794 698 L 1793 697 L 1775 697 L 1774 696 L 1762 696 L 1761 695 L 1756 695 L 1755 694 L 1748 694 L 1747 693 L 1743 693 L 1742 692 L 1738 692 L 1737 691 L 1734 691 L 1733 690 L 1730 690 L 1729 689 L 1726 689 L 1725 688 L 1723 688 L 1722 687 L 1719 687 L 1718 686 L 1716 686 L 1715 685 L 1713 685 L 1712 684 L 1710 684 L 1709 683 L 1708 683 L 1707 682 L 1705 682 L 1704 681 L 1703 681 L 1702 680 L 1700 680 L 1699 679 L 1698 679 L 1697 678 L 1696 678 L 1695 677 L 1694 677 L 1693 676 L 1692 676 L 1691 675 L 1690 675 L 1689 674 L 1688 674 L 1687 673 L 1686 673 L 1685 672 L 1684 672 L 1683 671 L 1682 671 L 1680 669 L 1679 669 L 1678 668 L 1677 668 L 1675 666 L 1674 666 L 1671 663 L 1670 663 L 1666 659 L 1665 659 L 1657 651 L 1657 650 L 1653 646 L 1653 645 L 1652 644 L 1652 643 L 1650 641 L 1650 640 L 1649 639 L 1649 638 L 1648 637 L 1648 635 L 1647 634 L 1647 632 L 1646 631 L 1646 627 L 1645 626 L 1645 616 L 1644 615 L 1644 614 L 1641 611 L 1640 611 L 1639 610 L 1638 610 L 1637 609 L 1635 609 L 1634 608 L 1629 608 L 1628 609 L 1626 609 L 1625 610 L 1624 610 L 1623 611 L 1622 611 L 1621 612 L 1621 613 L 1620 614 L 1620 615 L 1619 616 L 1619 633 L 1620 634 L 1620 638 L 1621 639 L 1621 641 L 1622 642 L 1622 645 L 1623 646 L 1623 647 L 1624 648 L 1624 649 L 1625 650 L 1625 652 L 1627 654 L 1627 655 L 1628 656 L 1628 657 L 1629 658 L 1629 659 L 1632 662 L 1632 663 L 1636 667 L 1636 668 L 1646 678 L 1647 678 L 1651 682 L 1652 682 L 1655 685 L 1656 685 L 1658 687 L 1659 687 L 1661 689 L 1662 689 L 1663 690 L 1664 690 L 1666 692 L 1667 692 L 1669 694 L 1670 694 L 1671 695 L 1672 695 L 1673 696 L 1674 696 L 1675 697 L 1676 697 L 1677 698 L 1678 698 L 1679 699 L 1680 699 L 1681 700 L 1682 700 L 1683 701 L 1684 701 L 1685 702 L 1686 702 L 1687 703 L 1688 703 L 1689 704 L 1690 704 L 1691 705 L 1693 705 L 1694 706 L 1695 706 L 1696 707 L 1698 707 L 1699 708 L 1701 708 L 1702 709 L 1703 709 L 1704 710 L 1707 710 L 1708 711 L 1709 711 L 1710 712 L 1713 712 L 1714 713 L 1716 713 L 1717 714 L 1720 714 L 1721 715 L 1724 715 L 1725 716 L 1728 716 L 1729 717 L 1733 717 L 1734 718 L 1737 718 L 1738 719 L 1743 719 L 1744 720 L 1750 720 L 1751 721 L 1757 721 L 1758 722 L 1768 722 L 1769 723 L 1785 723 L 1786 724 L 1808 724 L 1809 723 L 1829 723 L 1830 722 L 1844 722 L 1845 721 L 1854 721 L 1855 720 L 1862 720 L 1863 719 L 1870 719 L 1871 718 L 1875 718 L 1876 717 L 1881 717 L 1882 716 L 1885 716 L 1886 715 L 1890 715 L 1891 714 L 1895 714 L 1896 713 L 1898 713 L 1899 712 L 1903 712 L 1904 711 L 1906 711 L 1907 710 L 1909 710 L 1910 709 L 1912 709 L 1913 708 L 1915 708 L 1916 707 L 1918 707 L 1919 706 L 1921 706 L 1922 705 L 1924 705 L 1925 704 L 1926 704 L 1927 703 L 1928 703 L 1929 702 L 1931 702 L 1932 701 L 1933 701 L 1934 700 L 1935 700 L 1936 699 L 1937 699 L 1939 697 L 1940 697 L 1941 696 L 1942 696 L 1943 695 L 1944 695 L 1945 694 L 1946 694 L 1948 692 L 1949 692 L 1951 690 L 1952 690 L 1965 677 L 1965 676 L 1966 675 L 1966 674 L 1968 672 L 1968 671 L 1969 670 L 1969 669 L 1970 668 L 1970 667 L 1971 666 L 1971 663 L 1972 662 L 1972 660 L 1973 659 L 1973 638 L 1972 637 L 1972 634 L 1971 633 L 1971 631 L 1970 630 L 1970 628 L 1969 627 L 1969 626 L 1968 625 L 1968 624 L 1967 623 L 1967 622 L 1966 621 L 1966 620 L 1963 617 L 1963 616 L 1953 606 L 1952 606 L 1950 604 L 1949 604 L 1947 602 L 1946 602 L 1944 600 L 1943 600 L 1942 599 L 1941 599 L 1940 598 L 1939 598 L 1938 597 L 1937 597 L 1936 596 L 1935 596 L 1934 595 L 1933 595 L 1932 594 L 1931 594 L 1930 593 L 1928 593 L 1927 592 L 1926 592 L 1925 591 L 1923 591 L 1922 590 L 1920 590 L 1919 589 L 1917 589 L 1916 588 L 1913 588 L 1912 587 L 1910 587 L 1909 586 L 1905 586 L 1904 585 L 1902 585 L 1901 584 L 1897 584 L 1896 583 L 1892 583 L 1891 582 L 1888 582 L 1887 581 L 1881 581 L 1880 580 L 1877 580 L 1876 579 L 1871 579 L 1870 578 L 1865 578 L 1864 577 L 1859 577 L 1858 576 L 1853 576 L 1852 575 L 1847 575 L 1846 574 L 1839 574 L 1838 573 L 1834 573 L 1833 572 L 1826 572 L 1825 571 L 1818 571 L 1817 570 L 1812 570 L 1811 569 L 1804 569 L 1803 568 L 1798 568 L 1797 567 L 1790 567 L 1789 566 L 1783 566 L 1782 565 L 1776 565 L 1775 564 L 1768 564 L 1767 563 L 1762 563 L 1761 562 L 1755 562 L 1754 561 L 1749 561 L 1748 560 L 1743 560 L 1742 559 L 1737 559 L 1736 558 L 1731 558 L 1730 557 L 1725 557 L 1724 556 L 1721 556 L 1720 555 L 1715 555 L 1714 554 L 1710 554 L 1709 553 L 1705 553 L 1704 552 L 1700 552 L 1699 551 L 1696 551 L 1695 550 L 1692 550 L 1691 549 L 1689 549 L 1688 548 L 1684 548 L 1683 547 L 1681 547 L 1680 546 L 1679 546 L 1678 545 L 1675 545 L 1674 544 L 1673 544 L 1672 543 L 1671 543 L 1670 542 L 1669 542 L 1668 541 L 1667 541 L 1666 540 L 1665 540 L 1664 539 L 1663 539 L 1661 537 L 1660 537 L 1655 532 L 1654 532 L 1653 531 L 1653 530 L 1650 527 L 1650 526 L 1648 524 L 1648 523 L 1647 522 L 1647 520 L 1646 519 L 1646 516 L 1645 515 L 1645 509 L 1646 508 L 1646 506 L 1647 505 L 1647 504 L 1648 503 L 1648 502 L 1649 501 L 1649 500 L 1659 490 L 1660 490 L 1661 489 L 1662 489 L 1664 487 L 1665 487 L 1666 486 L 1667 486 L 1669 484 L 1670 484 L 1671 483 L 1673 483 L 1674 482 L 1675 482 L 1676 481 L 1678 481 L 1679 480 L 1681 480 L 1682 479 L 1683 479 L 1684 478 L 1686 478 L 1687 477 L 1690 477 L 1691 476 L 1693 476 L 1694 475 L 1697 475 L 1698 474 L 1700 474 L 1701 473 L 1705 473 L 1706 472 L 1709 472 L 1710 471 L 1715 471 L 1716 470 L 1720 470 L 1721 469 L 1725 469 L 1726 468 L 1734 468 L 1735 467 L 1740 467 L 1741 466 L 1753 466 L 1754 465 L 1767 465 L 1768 464 L 1817 464 L 1818 465 L 1827 465 L 1828 466 L 1837 466 L 1838 467 L 1842 467 L 1843 468 L 1848 468 L 1849 469 L 1853 469 L 1854 470 L 1857 470 L 1858 471 L 1862 471 L 1863 472 L 1865 472 L 1866 473 L 1869 473 L 1870 474 L 1872 474 L 1873 475 L 1875 475 L 1876 476 L 1878 476 L 1879 477 L 1881 477 L 1882 478 L 1884 478 L 1885 479 L 1886 479 L 1887 480 L 1889 480 L 1890 481 L 1891 481 L 1892 482 L 1894 482 L 1895 483 L 1896 483 L 1897 484 L 1898 484 L 1899 485 L 1900 485 L 1901 486 L 1902 486 L 1903 487 L 1904 487 L 1905 488 L 1906 488 L 1907 489 L 1908 489 L 1910 491 L 1911 491 L 1912 492 L 1913 492 L 1915 494 L 1916 494 L 1918 496 L 1919 496 L 1921 498 L 1922 498 L 1927 503 L 1928 503 L 1934 509 L 1934 510 L 1938 514 L 1938 515 L 1940 517 L 1940 518 L 1942 520 L 1942 521 L 1943 522 L 1943 524 L 1944 525 L 1944 526 L 1945 527 L 1945 530 L 1946 531 L 1946 534 L 1947 535 L 1947 545 L 1948 546 L 1948 547 L 1949 548 L 1949 549 L 1950 549 L 1952 551 L 1953 551 L 1954 552 L 1956 552 L 1957 553 L 1963 553 L 1964 552 L 1966 552 L 1967 551 L 1968 551 L 1969 550 L 1970 550 L 1972 548 L 1972 547 L 1973 546 L 1973 528 L 1972 527 L 1972 524 L 1971 523 L 1971 520 L 1970 519 L 1970 517 L 1969 516 L 1969 514 L 1968 513 L 1968 512 L 1967 511 L 1967 510 L 1966 509 L 1966 508 L 1965 507 L 1965 506 L 1964 505 L 1964 504 L 1962 502 L 1962 501 L 1959 498 L 1959 497 L 1956 494 L 1956 493 L 1955 493 L 1954 492 L 1954 491 L 1949 486 L 1948 486 L 1942 480 L 1941 480 L 1938 477 L 1937 477 L 1935 475 L 1934 475 L 1931 472 L 1930 472 L 1929 471 L 1928 471 L 1926 469 L 1925 469 L 1924 468 L 1923 468 L 1922 467 L 1921 467 L 1919 465 L 1918 465 L 1917 464 L 1916 464 L 1915 463 L 1914 463 L 1913 462 L 1912 462 L 1911 461 L 1910 461 L 1909 460 L 1908 460 L 1907 459 L 1905 459 L 1904 458 L 1903 458 L 1902 457 L 1901 457 L 1900 456 L 1898 456 L 1897 455 L 1896 455 L 1895 454 L 1893 454 L 1892 453 L 1891 453 L 1890 452 L 1887 452 L 1886 451 L 1885 451 L 1884 450 L 1881 450 L 1880 449 L 1878 449 L 1877 448 L 1875 448 L 1874 447 L 1871 447 L 1870 446 L 1867 446 L 1866 445 L 1863 445 L 1862 444 L 1858 444 L 1857 443 L 1853 443 L 1852 442 L 1846 442 L 1845 441 L 1841 441 L 1840 440 L 1832 440 L 1831 439 L 1823 439 L 1822 438 Z"/>
    <path d="M 857 255 L 856 256 L 804 256 L 803 257 L 780 257 L 779 258 L 755 258 L 754 259 L 735 259 L 734 260 L 718 260 L 717 261 L 701 261 L 700 262 L 687 262 L 686 263 L 672 263 L 671 264 L 662 264 L 661 265 L 648 265 L 647 266 L 646 266 L 645 267 L 644 267 L 643 268 L 643 274 L 644 274 L 645 275 L 646 275 L 647 276 L 656 276 L 657 277 L 670 277 L 671 278 L 680 278 L 681 279 L 698 279 L 699 280 L 712 280 L 713 281 L 730 281 L 731 282 L 752 282 L 753 283 L 769 283 L 770 284 L 801 284 L 802 285 L 833 285 L 834 286 L 1040 286 L 1041 285 L 1044 285 L 1045 284 L 1047 284 L 1048 283 L 1049 283 L 1051 281 L 1052 281 L 1053 280 L 1054 280 L 1056 278 L 1056 277 L 1057 276 L 1057 275 L 1058 274 L 1058 267 L 1057 266 L 1057 265 L 1055 263 L 1055 262 L 1054 262 L 1052 260 L 1051 260 L 1050 259 L 1049 259 L 1048 258 L 1047 258 L 1046 257 L 1045 257 L 1044 256 L 1038 256 L 1037 255 Z"/>
    <path d="M 1110 74 L 1109 75 L 1105 75 L 1104 76 L 1099 76 L 1098 77 L 1094 77 L 1093 78 L 1089 78 L 1088 79 L 1084 79 L 1083 80 L 1081 80 L 1080 81 L 1077 81 L 1076 82 L 1074 82 L 1073 83 L 1071 83 L 1070 84 L 1067 84 L 1066 85 L 1065 85 L 1064 86 L 1062 86 L 1061 87 L 1060 87 L 1059 88 L 1057 88 L 1056 89 L 1054 89 L 1053 90 L 1052 90 L 1051 91 L 1049 91 L 1048 92 L 1047 92 L 1046 93 L 1044 93 L 1043 94 L 1041 94 L 1040 95 L 1039 95 L 1038 96 L 1036 96 L 1035 97 L 1034 97 L 1033 98 L 1032 98 L 1031 99 L 1030 99 L 1029 100 L 1027 100 L 1026 101 L 1025 101 L 1024 102 L 1023 102 L 1022 103 L 1021 103 L 1020 104 L 1019 104 L 1018 105 L 1017 105 L 1016 106 L 1015 106 L 1014 107 L 1013 107 L 1012 108 L 1010 108 L 1009 109 L 1008 109 L 1007 110 L 1006 110 L 1005 111 L 1004 111 L 1003 112 L 1002 112 L 1001 113 L 1000 113 L 999 114 L 998 114 L 997 115 L 996 115 L 995 116 L 994 116 L 993 117 L 992 117 L 991 118 L 990 118 L 989 119 L 988 119 L 987 120 L 986 120 L 985 121 L 984 121 L 982 123 L 981 123 L 980 124 L 979 124 L 978 125 L 977 125 L 976 126 L 975 126 L 974 127 L 973 127 L 972 128 L 971 128 L 970 129 L 969 129 L 968 130 L 967 130 L 966 131 L 965 131 L 964 132 L 963 132 L 961 134 L 960 134 L 959 135 L 958 135 L 957 136 L 956 136 L 955 137 L 954 137 L 953 138 L 952 138 L 950 140 L 949 140 L 948 141 L 947 141 L 946 142 L 945 142 L 944 143 L 943 143 L 942 144 L 941 144 L 939 146 L 938 146 L 937 147 L 936 147 L 934 149 L 933 149 L 932 150 L 931 150 L 930 151 L 929 151 L 928 152 L 927 152 L 925 154 L 924 154 L 923 155 L 922 155 L 921 156 L 920 156 L 918 158 L 917 158 L 916 159 L 915 159 L 914 160 L 913 160 L 912 161 L 911 161 L 909 163 L 908 163 L 907 164 L 906 164 L 905 165 L 904 165 L 903 166 L 902 166 L 900 168 L 899 168 L 898 169 L 897 169 L 896 170 L 895 170 L 894 171 L 893 171 L 892 172 L 891 172 L 890 173 L 889 173 L 887 175 L 886 175 L 885 176 L 884 176 L 883 177 L 882 177 L 881 178 L 880 178 L 879 179 L 878 179 L 877 180 L 876 180 L 874 182 L 873 182 L 872 183 L 871 183 L 870 184 L 869 184 L 868 185 L 867 185 L 865 187 L 864 187 L 862 189 L 861 189 L 857 193 L 856 193 L 853 196 L 853 197 L 850 200 L 850 201 L 849 202 L 849 203 L 848 204 L 848 211 L 849 212 L 849 213 L 850 214 L 851 214 L 852 215 L 853 215 L 854 216 L 857 216 L 858 217 L 865 217 L 866 216 L 869 216 L 870 215 L 874 215 L 875 214 L 877 214 L 878 213 L 879 213 L 880 212 L 881 212 L 882 211 L 883 211 L 884 210 L 885 210 L 886 209 L 887 209 L 888 208 L 889 208 L 890 207 L 891 207 L 892 206 L 893 206 L 894 205 L 895 205 L 896 204 L 897 204 L 898 203 L 899 203 L 900 202 L 901 202 L 903 200 L 904 200 L 905 199 L 906 199 L 907 198 L 908 198 L 909 197 L 910 197 L 911 196 L 912 196 L 913 195 L 914 195 L 916 193 L 917 193 L 918 192 L 919 192 L 920 191 L 921 191 L 922 190 L 923 190 L 925 188 L 926 188 L 927 187 L 928 187 L 929 186 L 930 186 L 931 185 L 932 185 L 934 183 L 935 183 L 936 182 L 937 182 L 938 181 L 939 181 L 940 180 L 941 180 L 943 178 L 944 178 L 945 177 L 946 177 L 947 176 L 948 176 L 950 174 L 951 174 L 952 173 L 953 173 L 955 171 L 956 171 L 957 170 L 958 170 L 959 169 L 960 169 L 961 168 L 962 168 L 963 167 L 964 167 L 966 165 L 967 165 L 968 164 L 969 164 L 970 163 L 971 163 L 972 162 L 973 162 L 974 161 L 975 161 L 977 159 L 978 159 L 979 158 L 980 158 L 981 157 L 982 157 L 983 156 L 984 156 L 985 155 L 986 155 L 987 154 L 988 154 L 990 152 L 991 152 L 992 151 L 993 151 L 994 150 L 995 150 L 996 149 L 997 149 L 998 148 L 999 148 L 1000 147 L 1001 147 L 1002 146 L 1003 146 L 1004 145 L 1005 145 L 1006 144 L 1007 144 L 1008 143 L 1009 143 L 1010 142 L 1011 142 L 1012 141 L 1013 141 L 1014 140 L 1015 140 L 1016 139 L 1017 139 L 1018 138 L 1019 138 L 1020 137 L 1021 137 L 1022 136 L 1023 136 L 1024 135 L 1025 135 L 1026 134 L 1027 134 L 1028 133 L 1029 133 L 1030 132 L 1031 132 L 1032 131 L 1033 131 L 1034 130 L 1035 130 L 1036 129 L 1038 129 L 1039 128 L 1040 128 L 1041 127 L 1042 127 L 1043 126 L 1045 126 L 1046 125 L 1047 125 L 1048 124 L 1049 124 L 1050 123 L 1052 123 L 1053 122 L 1054 122 L 1055 121 L 1057 121 L 1058 120 L 1059 120 L 1060 119 L 1062 119 L 1063 118 L 1064 118 L 1065 117 L 1067 117 L 1068 116 L 1070 116 L 1071 115 L 1073 115 L 1074 114 L 1076 114 L 1077 113 L 1078 113 L 1079 112 L 1082 112 L 1083 111 L 1085 111 L 1086 110 L 1089 110 L 1090 109 L 1093 109 L 1094 108 L 1097 108 L 1098 107 L 1102 107 L 1103 106 L 1106 106 L 1107 105 L 1112 105 L 1113 104 L 1123 104 L 1124 103 L 1129 103 L 1130 104 L 1142 104 L 1143 105 L 1150 105 L 1151 106 L 1154 106 L 1155 107 L 1158 107 L 1159 108 L 1162 108 L 1163 109 L 1166 109 L 1167 110 L 1169 110 L 1170 111 L 1173 111 L 1174 112 L 1176 112 L 1177 113 L 1179 113 L 1180 114 L 1182 114 L 1183 115 L 1185 115 L 1186 116 L 1188 116 L 1189 117 L 1191 117 L 1192 118 L 1193 118 L 1194 119 L 1196 119 L 1197 120 L 1199 120 L 1200 121 L 1201 121 L 1202 122 L 1204 122 L 1205 123 L 1206 123 L 1207 124 L 1209 124 L 1210 125 L 1211 125 L 1212 126 L 1214 126 L 1215 127 L 1216 127 L 1217 128 L 1219 128 L 1220 129 L 1221 129 L 1222 130 L 1223 130 L 1224 131 L 1226 131 L 1227 132 L 1228 132 L 1229 133 L 1230 133 L 1231 134 L 1232 134 L 1233 135 L 1235 135 L 1236 136 L 1237 136 L 1238 137 L 1239 137 L 1240 138 L 1241 138 L 1242 139 L 1243 139 L 1244 140 L 1245 140 L 1246 141 L 1248 141 L 1249 142 L 1250 142 L 1251 143 L 1252 143 L 1253 144 L 1254 144 L 1255 145 L 1256 145 L 1257 146 L 1258 146 L 1259 147 L 1260 147 L 1261 148 L 1262 148 L 1263 149 L 1264 149 L 1265 150 L 1266 150 L 1267 151 L 1268 151 L 1269 152 L 1270 152 L 1271 153 L 1272 153 L 1273 154 L 1274 154 L 1275 155 L 1276 155 L 1277 156 L 1278 156 L 1279 157 L 1280 157 L 1281 158 L 1282 158 L 1283 159 L 1284 159 L 1285 160 L 1286 160 L 1287 161 L 1288 161 L 1289 162 L 1290 162 L 1291 163 L 1292 163 L 1293 164 L 1294 164 L 1295 165 L 1296 165 L 1297 166 L 1298 166 L 1299 167 L 1300 167 L 1301 168 L 1302 168 L 1303 169 L 1305 169 L 1306 170 L 1307 170 L 1308 171 L 1309 171 L 1310 172 L 1311 172 L 1312 173 L 1313 173 L 1314 174 L 1315 174 L 1316 175 L 1317 175 L 1318 176 L 1319 176 L 1320 177 L 1321 177 L 1322 178 L 1323 178 L 1324 179 L 1325 179 L 1326 180 L 1327 180 L 1328 181 L 1329 181 L 1330 182 L 1331 182 L 1332 183 L 1333 183 L 1334 184 L 1335 184 L 1336 185 L 1337 185 L 1338 186 L 1339 186 L 1340 187 L 1341 187 L 1342 188 L 1343 188 L 1344 189 L 1345 189 L 1346 190 L 1347 190 L 1348 191 L 1349 191 L 1350 192 L 1351 192 L 1352 193 L 1353 193 L 1354 194 L 1355 194 L 1356 195 L 1357 195 L 1358 196 L 1359 196 L 1360 197 L 1361 197 L 1362 198 L 1363 198 L 1364 199 L 1365 199 L 1366 200 L 1368 200 L 1369 201 L 1370 201 L 1371 202 L 1372 202 L 1373 203 L 1374 203 L 1375 204 L 1376 204 L 1377 205 L 1379 205 L 1380 206 L 1381 206 L 1382 207 L 1383 207 L 1384 208 L 1386 208 L 1387 209 L 1388 209 L 1389 210 L 1390 210 L 1391 211 L 1392 211 L 1393 212 L 1395 212 L 1396 213 L 1402 213 L 1403 212 L 1404 212 L 1404 206 L 1403 205 L 1402 205 L 1401 204 L 1400 204 L 1398 202 L 1397 202 L 1396 201 L 1395 201 L 1394 200 L 1393 200 L 1392 199 L 1391 199 L 1389 197 L 1388 197 L 1387 196 L 1386 196 L 1385 195 L 1384 195 L 1382 193 L 1381 193 L 1380 192 L 1379 192 L 1377 190 L 1376 190 L 1375 189 L 1374 189 L 1373 188 L 1372 188 L 1370 186 L 1369 186 L 1368 185 L 1367 185 L 1365 183 L 1364 183 L 1363 182 L 1362 182 L 1360 180 L 1359 180 L 1357 178 L 1356 178 L 1355 177 L 1354 177 L 1352 175 L 1351 175 L 1350 174 L 1349 174 L 1347 172 L 1346 172 L 1344 170 L 1343 170 L 1342 169 L 1341 169 L 1339 167 L 1338 167 L 1337 166 L 1336 166 L 1334 164 L 1333 164 L 1332 163 L 1331 163 L 1329 161 L 1328 161 L 1326 159 L 1325 159 L 1324 158 L 1323 158 L 1321 156 L 1320 156 L 1318 154 L 1317 154 L 1316 153 L 1315 153 L 1313 151 L 1312 151 L 1311 150 L 1310 150 L 1308 148 L 1307 148 L 1306 147 L 1305 147 L 1303 145 L 1302 145 L 1301 144 L 1300 144 L 1298 142 L 1297 142 L 1296 141 L 1295 141 L 1293 139 L 1292 139 L 1291 138 L 1290 138 L 1288 136 L 1287 136 L 1286 135 L 1285 135 L 1284 134 L 1283 134 L 1281 132 L 1280 132 L 1279 131 L 1278 131 L 1277 130 L 1276 130 L 1274 128 L 1273 128 L 1272 127 L 1271 127 L 1269 125 L 1268 125 L 1267 124 L 1266 124 L 1265 123 L 1264 123 L 1263 122 L 1262 122 L 1261 121 L 1260 121 L 1259 120 L 1258 120 L 1256 118 L 1255 118 L 1254 117 L 1253 117 L 1252 116 L 1251 116 L 1250 115 L 1249 115 L 1248 114 L 1247 114 L 1246 113 L 1245 113 L 1244 112 L 1243 112 L 1242 111 L 1241 111 L 1240 110 L 1239 110 L 1238 109 L 1237 109 L 1236 108 L 1235 108 L 1234 107 L 1233 107 L 1232 106 L 1231 106 L 1230 105 L 1229 105 L 1228 104 L 1227 104 L 1226 103 L 1225 103 L 1224 102 L 1223 102 L 1222 101 L 1221 101 L 1220 100 L 1219 100 L 1218 99 L 1217 99 L 1216 98 L 1214 98 L 1213 97 L 1212 97 L 1211 96 L 1210 96 L 1209 95 L 1208 95 L 1207 94 L 1206 94 L 1205 93 L 1203 93 L 1202 92 L 1201 92 L 1200 91 L 1198 91 L 1197 90 L 1196 90 L 1195 89 L 1193 89 L 1192 88 L 1190 88 L 1189 87 L 1188 87 L 1187 86 L 1184 86 L 1183 85 L 1182 85 L 1181 84 L 1179 84 L 1178 83 L 1175 83 L 1174 82 L 1172 82 L 1171 81 L 1168 81 L 1167 80 L 1165 80 L 1164 79 L 1161 79 L 1160 78 L 1157 78 L 1156 77 L 1152 77 L 1151 76 L 1147 76 L 1146 75 L 1142 75 L 1141 74 Z"/>
  </g>
</svg>
